<svg xmlns="http://www.w3.org/2000/svg" width="3840" height="3840"><path d="M2005,1859L1827,1616L1545,1949Z" fill="#85cfc1" stroke="#85cfc1" stroke-width="1.51"/><path d="M1827,1616L1408,1553L1545,1949Z" fill="#90d3be" stroke="#90d3be" stroke-width="1.51"/><path d="M1408,1553L1244,1948L1545,1949Z" fill="#93d4bd" stroke="#93d4bd" stroke-width="1.51"/><path d="M1545,1949L1802,2419L2005,1859Z" fill="#7ccbc5" stroke="#7ccbc5" stroke-width="1.51"/><path d="M1488,2350L1802,2419L1545,1949Z" fill="#7ec9c5" stroke="#7ec9c5" stroke-width="1.51"/><path d="M1244,1948L1488,2350L1545,1949Z" fill="#8acfc0" stroke="#8acfc0" stroke-width="1.51"/><path d="M2307,2411L2417,2024L2005,1859Z" fill="#6cc2ca" stroke="#6cc2ca" stroke-width="1.51"/><path d="M2005,1859L2392,1488L1827,1616Z" fill="#81ccc3" stroke="#81ccc3" stroke-width="1.51"/><path d="M1408,1553L1118,1641L1244,1948Z" fill="#9bd8bb" stroke="#9bd8bb" stroke-width="1.51"/><path d="M2417,2024L2392,1488L2005,1859Z" fill="#76c6c7" stroke="#76c6c7" stroke-width="1.51"/><path d="M1827,1616L1522,1115L1408,1553Z" fill="#9ad7ba" stroke="#9ad7ba" stroke-width="1.51"/><path d="M1802,2419L2307,2411L2005,1859Z" fill="#6ec3ca" stroke="#6ec3ca" stroke-width="1.51"/><path d="M1488,2350L1791,2587L1802,2419Z" fill="#75c4c8" stroke="#75c4c8" stroke-width="1.51"/><path d="M1967,1099L1522,1115L1827,1616Z" fill="#99d6bb" stroke="#99d6bb" stroke-width="1.51"/><path d="M1408,1553L1055,1213L1118,1641Z" fill="#a5dbb8" stroke="#a5dbb8" stroke-width="1.51"/><path d="M2392,1488L1967,1099L1827,1616Z" fill="#8cd0c0" stroke="#8cd0c0" stroke-width="1.51"/><path d="M1244,1948L1184,2369L1488,2350Z" fill="#8bcec0" stroke="#8bcec0" stroke-width="1.51"/><path d="M1488,2350L1606,2806L1791,2587Z" fill="#74c2c8" stroke="#74c2c8" stroke-width="1.51"/><path d="M887,1897L1184,2369L1244,1948Z" fill="#95d3c1" stroke="#95d3c1" stroke-width="1.51"/><path d="M1791,2587L2307,2411L1802,2419Z" fill="#68c0cb" stroke="#68c0cb" stroke-width="1.51"/><path d="M2392,1488L2189,1089L1967,1099Z" fill="#8fcfc1" stroke="#8fcfc1" stroke-width="1.51"/><path d="M2417,2024L2566,1566L2392,1488Z" fill="#75c4c8" stroke="#75c4c8" stroke-width="1.51"/><path d="M2707,1992L2566,1566L2417,2024Z" fill="#6ac0cb" stroke="#6ac0cb" stroke-width="1.51"/><path d="M2274,855L2189,1089L2698,1012Z" fill="#91cec6" stroke="#91cec6" stroke-width="1.51"/><path d="M1967,1099L1544,826L1522,1115Z" fill="#a4dabd" stroke="#a4dabd" stroke-width="1.51"/><path d="M1118,1641L887,1897L1244,1948Z" fill="#9cd8be" stroke="#9cd8be" stroke-width="1.51"/><path d="M864,1485L887,1897L1118,1641Z" fill="#a5dbbe" stroke="#a5dbbe" stroke-width="1.51"/><path d="M1184,2369L1273,2629L1488,2350Z" fill="#84c9c4" stroke="#84c9c4" stroke-width="1.51"/><path d="M708,2785L1273,2629L1184,2369Z" fill="#8ac9c7" stroke="#8ac9c7" stroke-width="1.51"/><path d="M1522,1115L1055,1213L1408,1553Z" fill="#a7dcb6" stroke="#a7dcb6" stroke-width="1.51"/><path d="M2751,2260L2707,1992L2417,2024Z" fill="#60b9cc" stroke="#60b9cc" stroke-width="1.51"/><path d="M1273,2629L1606,2806L1488,2350Z" fill="#7bc4c5" stroke="#7bc4c5" stroke-width="1.51"/><path d="M1791,2587L2440,2805L2307,2411Z" fill="#5db9ce" stroke="#5db9ce" stroke-width="1.51"/><path d="M1055,1213L864,1485L1118,1641Z" fill="#abdebb" stroke="#abdebb" stroke-width="1.51"/><path d="M1522,1115L1544,826L1055,1213Z" fill="#addfb9" stroke="#addfb9" stroke-width="1.51"/><path d="M1806,710L1544,826L1967,1099Z" fill="#a5dbc0" stroke="#a5dbc0" stroke-width="1.51"/><path d="M2307,2411L2751,2260L2417,2024Z" fill="#5ebacf" stroke="#5ebacf" stroke-width="1.51"/><path d="M2749,2733L2751,2260L2307,2411Z" fill="#50b3d1" stroke="#50b3d1" stroke-width="1.51"/><path d="M887,1897L741,2225L1184,2369Z" fill="#98d3c4" stroke="#98d3c4" stroke-width="1.51"/><path d="M353,1844L741,2225L887,1897Z" fill="#a4dac6" stroke="#a4dac6" stroke-width="1.51"/><path d="M1055,1213L839,1241L864,1485Z" fill="#b2e1ba" stroke="#b2e1ba" stroke-width="1.51"/><path d="M864,1485L393,1527L887,1897Z" fill="#aedfc1" stroke="#aedfc1" stroke-width="1.51"/><path d="M805,745L839,1241L1055,1213Z" fill="#bae4bd" stroke="#bae4bd" stroke-width="1.51"/><path d="M2189,1089L2274,855L1967,1099Z" fill="#96d3c3" stroke="#96d3c3" stroke-width="1.51"/><path d="M2698,1012L2189,1089L2392,1488Z" fill="#89cbc4" stroke="#89cbc4" stroke-width="1.51"/><path d="M1823,3046L2440,2805L1791,2587Z" fill="#5eb5c8" stroke="#5eb5c8" stroke-width="1.51"/><path d="M1273,2629L1560,2955L1606,2806Z" fill="#77bdc3" stroke="#77bdc3" stroke-width="1.51"/><path d="M1136,3001L1560,2955L1273,2629Z" fill="#7bbdc0" stroke="#7bbdc0" stroke-width="1.51"/><path d="M2274,855L1806,710L1967,1099Z" fill="#9dd7c3" stroke="#9dd7c3" stroke-width="1.51"/><path d="M1823,3046L1791,2587L1606,2806Z" fill="#6ab9c5" stroke="#6ab9c5" stroke-width="1.51"/><path d="M1560,2955L1823,3046L1606,2806Z" fill="#6cb6c2" stroke="#6cb6c2" stroke-width="1.51"/><path d="M3097,1632L2566,1566L2707,1992Z" fill="#6bbac6" stroke="#6bbac6" stroke-width="1.51"/><path d="M3097,1632L2698,1012L2566,1566Z" fill="#7abec2" stroke="#7abec2" stroke-width="1.51"/><path d="M2566,1566L2698,1012L2392,1488Z" fill="#80c7c5" stroke="#80c7c5" stroke-width="1.51"/><path d="M1647,3444L1914,3437L1823,3046Z" fill="#5fa9be" stroke="#5fa9be" stroke-width="1.51"/><path d="M708,2785L1136,3001L1273,2629Z" fill="#85c2c3" stroke="#85c2c3" stroke-width="1.51"/><path d="M2440,2805L2749,2733L2307,2411Z" fill="#4eb1d1" stroke="#4eb1d1" stroke-width="1.51"/><path d="M2728,3024L2749,2733L2440,2805Z" fill="#45a6cc" stroke="#45a6cc" stroke-width="1.51"/><path d="M3177,1787L3097,1632L2707,1992Z" fill="#64b2c3" stroke="#64b2c3" stroke-width="1.51"/><path d="M3177,1787L2707,1992L3204,2349Z" fill="#59aec5" stroke="#59aec5" stroke-width="1.51"/><path d="M1806,710L1489,405L1544,826Z" fill="#b0e0c1" stroke="#b0e0c1" stroke-width="1.51"/><path d="M1544,826L1050,683L1055,1213Z" fill="#b5e3bb" stroke="#b5e3bb" stroke-width="1.51"/><path d="M2274,855L1884,487L1806,710Z" fill="#a4d9c5" stroke="#a4d9c5" stroke-width="1.51"/><path d="M2320,291L1884,487L2274,855Z" fill="#a2d7ca" stroke="#a2d7ca" stroke-width="1.51"/><path d="M1489,405L1050,683L1544,826Z" fill="#b8e3be" stroke="#b8e3be" stroke-width="1.51"/><path d="M1823,3046L2432,3084L2440,2805Z" fill="#52acc9" stroke="#52acc9" stroke-width="1.51"/><path d="M427,1232L393,1527L864,1485Z" fill="#b8e3c0" stroke="#b8e3c0" stroke-width="1.51"/><path d="M427,1232L864,1485L839,1241Z" fill="#b8e3bd" stroke="#b8e3bd" stroke-width="1.51"/><path d="M393,1527L353,1844L887,1897Z" fill="#addec5" stroke="#addec5" stroke-width="1.51"/><path d="M741,2225L708,2785L1184,2369Z" fill="#92cec9" stroke="#92cec9" stroke-width="1.51"/><path d="M452,2430L708,2785L741,2225Z" fill="#99d0cc" stroke="#99d0cc" stroke-width="1.51"/><path d="M3204,2349L2707,1992L2751,2260Z" fill="#56afca" stroke="#56afca" stroke-width="1.51"/><path d="M353,1844L452,2430L741,2225Z" fill="#a3d7ca" stroke="#a3d7ca" stroke-width="1.51"/><path d="M1050,683L805,745L1055,1213Z" fill="#bde5be" stroke="#bde5be" stroke-width="1.51"/><path d="M2698,1012L2676,699L2274,855Z" fill="#90cdca" stroke="#90cdca" stroke-width="1.51"/><path d="M2965,735L2676,699L2698,1012Z" fill="#8dc6c7" stroke="#8dc6c7" stroke-width="1.51"/><path d="M3189,1059L2698,1012L3097,1632Z" fill="#7cbabe" stroke="#7cbabe" stroke-width="1.51"/><path d="M1050,683L849,417L805,745Z" fill="#c6e9c3" stroke="#c6e9c3" stroke-width="1.51"/><path d="M1884,487L1489,405L1806,710Z" fill="#aedfc4" stroke="#aedfc4" stroke-width="1.51"/><path d="M805,745L427,1232L839,1241Z" fill="#c0e6bf" stroke="#c0e6bf" stroke-width="1.51"/><path d="M2,1422L-35,1988L353,1844Z" fill="#b4e2cc" stroke="#b4e2cc" stroke-width="1.51"/><path d="M2749,2733L3204,2349L2751,2260Z" fill="#4aaacc" stroke="#4aaacc" stroke-width="1.51"/><path d="M2432,3084L2728,3024L2440,2805Z" fill="#45a6cc" stroke="#45a6cc" stroke-width="1.51"/><path d="M3173,2821L3204,2349L2749,2733Z" fill="#40a1ca" stroke="#40a1ca" stroke-width="1.51"/><path d="M708,2785L668,2991L1136,3001Z" fill="#8ac1c4" stroke="#8ac1c4" stroke-width="1.51"/><path d="M1647,3444L1823,3046L1560,2955Z" fill="#67b0bf" stroke="#67b0bf" stroke-width="1.51"/><path d="M1823,3046L1914,3437L2432,3084Z" fill="#55a8c3" stroke="#55a8c3" stroke-width="1.51"/><path d="M460,2978L668,2991L708,2785Z" fill="#90c3c8" stroke="#90c3c8" stroke-width="1.51"/><path d="M1647,3444L1560,2955L1136,3001Z" fill="#71b3bd" stroke="#71b3bd" stroke-width="1.51"/><path d="M2432,3084L2711,3433L2728,3024Z" fill="#3c9dc7" stroke="#3c9dc7" stroke-width="1.51"/><path d="M1022,3543L1647,3444L1136,3001Z" fill="#75afb9" stroke="#75afb9" stroke-width="1.51"/><path d="M3358,1263L3189,1059L3097,1632Z" fill="#75b2ba" stroke="#75b2ba" stroke-width="1.51"/><path d="M3524,1539L3097,1632L3177,1787Z" fill="#66acbe" stroke="#66acbe" stroke-width="1.51"/><path d="M2676,699L2320,291L2274,855Z" fill="#9ad2cc" stroke="#9ad2cc" stroke-width="1.51"/><path d="M3189,1059L2965,735L2698,1012Z" fill="#86bfc3" stroke="#86bfc3" stroke-width="1.51"/><path d="M1489,405L1138,329L1050,683Z" fill="#bfe6c1" stroke="#bfe6c1" stroke-width="1.51"/><path d="M1120,53L1138,329L1489,405Z" fill="#c2e7c4" stroke="#c2e7c4" stroke-width="1.51"/><path d="M2638,289L2320,291L2676,699Z" fill="#9ad0d1" stroke="#9ad0d1" stroke-width="1.51"/><path d="M1884,487L1802,-63L1489,405Z" fill="#b2e1c8" stroke="#b2e1c8" stroke-width="1.51"/><path d="M3204,2349L3427,1873L3177,1787Z" fill="#56a7c1" stroke="#56a7c1" stroke-width="1.51"/><path d="M3189,1059L3375,725L2965,735Z" fill="#85b8c0" stroke="#85b8c0" stroke-width="1.51"/><path d="M3524,1539L3358,1263L3097,1632Z" fill="#6dacbb" stroke="#6dacbb" stroke-width="1.51"/><path d="M237,755L80,1017L427,1232Z" fill="#c9eac7" stroke="#c9eac7" stroke-width="1.51"/><path d="M1138,329L849,417L1050,683Z" fill="#c5e8c3" stroke="#c5e8c3" stroke-width="1.51"/><path d="M3204,2349L3430,2413L3427,1873Z" fill="#4ca0c2" stroke="#4ca0c2" stroke-width="1.51"/><path d="M2728,3024L3173,2821L2749,2733Z" fill="#3e9fc9" stroke="#3e9fc9" stroke-width="1.51"/><path d="M3136,3190L3173,2821L2728,3024Z" fill="#3696c4" stroke="#3696c4" stroke-width="1.51"/><path d="M638,3375L1022,3543L1136,3001Z" fill="#80b3bd" stroke="#80b3bd" stroke-width="1.51"/><path d="M273,2746L460,2978L708,2785Z" fill="#94c6cb" stroke="#94c6cb" stroke-width="1.51"/><path d="M273,2746L708,2785L452,2430Z" fill="#97ccce" stroke="#97ccce" stroke-width="1.51"/><path d="M-14,2583L273,2746L452,2430Z" fill="#9cd0d3" stroke="#9cd0d3" stroke-width="1.51"/><path d="M3173,2821L3430,2413L3204,2349Z" fill="#3e9dc7" stroke="#3e9dc7" stroke-width="1.51"/><path d="M1914,3437L2353,3512L2432,3084Z" fill="#4ba0c3" stroke="#4ba0c3" stroke-width="1.51"/><path d="M2383,3824L2353,3512L1914,3437Z" fill="#4999bf" stroke="#4999bf" stroke-width="1.51"/><path d="M3427,1873L3524,1539L3177,1787Z" fill="#61a8bd" stroke="#61a8bd" stroke-width="1.51"/><path d="M3814,1514L3524,1539L3427,1873Z" fill="#63a2b9" stroke="#63a2b9" stroke-width="1.51"/><path d="M2965,735L2638,289L2676,699Z" fill="#94c8cb" stroke="#94c8cb" stroke-width="1.51"/><path d="M3199,410L2638,289L2965,735Z" fill="#92c3c9" stroke="#92c3c9" stroke-width="1.51"/><path d="M353,1844L-52,2232L452,2430Z" fill="#a7d9cf" stroke="#a7d9cf" stroke-width="1.51"/><path d="M2,1422L353,1844L393,1527Z" fill="#b7e3c7" stroke="#b7e3c7" stroke-width="1.51"/><path d="M2,1422L393,1527L427,1232Z" fill="#bde5c5" stroke="#bde5c5" stroke-width="1.51"/><path d="M80,1017L2,1422L427,1232Z" fill="#c4e8c6" stroke="#c4e8c6" stroke-width="1.51"/><path d="M2353,3512L2711,3433L2432,3084Z" fill="#3f9cc6" stroke="#3f9cc6" stroke-width="1.51"/><path d="M638,3375L1136,3001L668,2991Z" fill="#86bac1" stroke="#86bac1" stroke-width="1.51"/><path d="M1647,3444L1619,3757L1914,3437Z" fill="#5fa3bb" stroke="#5fa3bb" stroke-width="1.51"/><path d="M-35,1988L-52,2232L353,1844Z" fill="#acddd0" stroke="#acddd0" stroke-width="1.51"/><path d="M-442,1983L-52,2232L-35,1988Z" fill="#b0ded5" stroke="#b0ded5" stroke-width="1.51"/><path d="M237,755L427,1232L805,745Z" fill="#c8e9c5" stroke="#c8e9c5" stroke-width="1.51"/><path d="M446,301L237,755L805,745Z" fill="#d0edc9" stroke="#d0edc9" stroke-width="1.51"/><path d="M460,2978L638,3375L668,2991Z" fill="#8cbdc4" stroke="#8cbdc4" stroke-width="1.51"/><path d="M250,3536L638,3375L460,2978Z" fill="#8cb8c4" stroke="#8cb8c4" stroke-width="1.51"/><path d="M-89,3103L460,2978L273,2746Z" fill="#95c4ce" stroke="#95c4ce" stroke-width="1.51"/><path d="M1138,329L1120,53L849,417Z" fill="#c8eac7" stroke="#c8eac7" stroke-width="1.51"/><path d="M849,417L446,301L805,745Z" fill="#ceecc7" stroke="#ceecc7" stroke-width="1.51"/><path d="M1623,-110L1120,53L1489,405Z" fill="#bfe6c8" stroke="#bfe6c8" stroke-width="1.51"/><path d="M1802,-63L1884,487L2320,291Z" fill="#aadccd" stroke="#aadccd" stroke-width="1.51"/><path d="M2350,-73L1802,-63L2320,291Z" fill="#aadad2" stroke="#aadad2" stroke-width="1.51"/><path d="M1022,3543L1619,3757L1647,3444Z" fill="#6ca5b7" stroke="#6ca5b7" stroke-width="1.51"/><path d="M2353,3512L2383,3824L2711,3433Z" fill="#3c94c2" stroke="#3c94c2" stroke-width="1.51"/><path d="M2711,3433L3136,3190L2728,3024Z" fill="#3595c3" stroke="#3595c3" stroke-width="1.51"/><path d="M3173,2821L3557,2643L3430,2413Z" fill="#3997c4" stroke="#3997c4" stroke-width="1.51"/><path d="M-52,2232L-14,2583L452,2430Z" fill="#a2d5d4" stroke="#a2d5d4" stroke-width="1.51"/><path d="M3430,2413L3778,2354L3427,1873Z" fill="#4a9bc0" stroke="#4a9bc0" stroke-width="1.51"/><path d="M3502,3032L3557,2643L3173,2821Z" fill="#3390c0" stroke="#3390c0" stroke-width="1.51"/><path d="M1802,-63L1623,-110L1489,405Z" fill="#b9e3cb" stroke="#b9e3cb" stroke-width="1.51"/><path d="M3358,1263L3375,725L3189,1059Z" fill="#7eb2bc" stroke="#7eb2bc" stroke-width="1.51"/><path d="M3804,1059L3375,725L3358,1263Z" fill="#7bacba" stroke="#7bacba" stroke-width="1.51"/><path d="M2638,289L2350,-73L2320,291Z" fill="#a1d4d3" stroke="#a1d4d3" stroke-width="1.51"/><path d="M1802,-63L1995,-324L1623,-110Z" fill="#b7e3d1" stroke="#b7e3d1" stroke-width="1.51"/><path d="M2648,-84L2350,-73L2638,289Z" fill="#a0d3d7" stroke="#a0d3d7" stroke-width="1.51"/><path d="M30,424L14,848L237,755Z" fill="#d5efcf" stroke="#d5efcf" stroke-width="1.51"/><path d="M237,755L14,848L80,1017Z" fill="#cfeccc" stroke="#cfeccc" stroke-width="1.51"/><path d="M80,1017L-353,1268L2,1422Z" fill="#c8eaca" stroke="#c8eaca" stroke-width="1.51"/><path d="M2,1422L-442,1983L-35,1988Z" fill="#b8e3d1" stroke="#b8e3d1" stroke-width="1.51"/><path d="M3375,725L3199,410L2965,735Z" fill="#8abac3" stroke="#8abac3" stroke-width="1.51"/><path d="M661,-12L446,301L849,417Z" fill="#d3eecc" stroke="#d3eecc" stroke-width="1.51"/><path d="M1870,3943L2383,3824L1914,3437Z" fill="#4e98bb" stroke="#4e98bb" stroke-width="1.51"/><path d="M2711,3433L3124,3588L3136,3190Z" fill="#2d8bbe" stroke="#2d8bbe" stroke-width="1.51"/><path d="M3557,2643L3778,2354L3430,2413Z" fill="#3d94c2" stroke="#3d94c2" stroke-width="1.51"/><path d="M3524,1539L3804,1059L3358,1263Z" fill="#72a8b5" stroke="#72a8b5" stroke-width="1.51"/><path d="M3953,1981L3814,1514L3427,1873Z" fill="#5a9cb8" stroke="#5a9cb8" stroke-width="1.51"/><path d="M1619,3757L1870,3943L1914,3437Z" fill="#5a9cb9" stroke="#5a9cb9" stroke-width="1.51"/><path d="M1587,4264L1870,3943L1619,3757Z" fill="#5d95b0" stroke="#5d95b0" stroke-width="1.51"/><path d="M1144,3943L1619,3757L1022,3543Z" fill="#71a2b3" stroke="#71a2b3" stroke-width="1.51"/><path d="M3524,3383L3502,3032L3136,3190Z" fill="#2785bb" stroke="#2785bb" stroke-width="1.51"/><path d="M3136,3190L3502,3032L3173,2821Z" fill="#2f8ebf" stroke="#2f8ebf" stroke-width="1.51"/><path d="M3557,2643L3882,2581L3778,2354Z" fill="#378fc0" stroke="#378fc0" stroke-width="1.51"/><path d="M3070,6L2648,-84L2638,289Z" fill="#9bcad3" stroke="#9bcad3" stroke-width="1.51"/><path d="M2350,-73L1995,-324L1802,-63Z" fill="#b0ded4" stroke="#b0ded4" stroke-width="1.51"/><path d="M1120,53L661,-12L849,417Z" fill="#ceeccb" stroke="#ceeccb" stroke-width="1.51"/><path d="M446,301L30,424L237,755Z" fill="#d5efcf" stroke="#d5efcf" stroke-width="1.51"/><path d="M1036,-318L661,-12L1120,53Z" fill="#d0edce" stroke="#d0edce" stroke-width="1.51"/><path d="M880,3928L1144,3943L1022,3543Z" fill="#78a3b5" stroke="#78a3b5" stroke-width="1.51"/><path d="M1623,-110L1036,-318L1120,53Z" fill="#c8eacb" stroke="#c8eacb" stroke-width="1.51"/><path d="M2279,-383L1995,-324L2350,-73Z" fill="#aedbd8" stroke="#aedbd8" stroke-width="1.51"/><path d="M3375,725L3545,499L3199,410Z" fill="#89b5c2" stroke="#89b5c2" stroke-width="1.51"/><path d="M3814,1514L3804,1059L3524,1539Z" fill="#6da2b4" stroke="#6da2b4" stroke-width="1.51"/><path d="M3814,1514L4186,1128L3804,1059Z" fill="#6f9cae" stroke="#6f9cae" stroke-width="1.51"/><path d="M3778,2354L3953,1981L3427,1873Z" fill="#4e98bc" stroke="#4e98bc" stroke-width="1.51"/><path d="M4256,1967L3953,1981L4280,2196Z" fill="#4b8aae" stroke="#4b8aae" stroke-width="1.51"/><path d="M-425,736L-353,1268L14,848Z" fill="#d3eed1" stroke="#d3eed1" stroke-width="1.51"/><path d="M14,848L-353,1268L80,1017Z" fill="#cdeccd" stroke="#cdeccd" stroke-width="1.51"/><path d="M-52,2232L-515,2290L-14,2583Z" fill="#a9d8d9" stroke="#a9d8d9" stroke-width="1.51"/><path d="M2703,3930L3124,3588L2711,3433Z" fill="#2e88bd" stroke="#2e88bd" stroke-width="1.51"/><path d="M-532,1426L-442,1983L2,1422Z" fill="#c1e6d2" stroke="#c1e6d2" stroke-width="1.51"/><path d="M3832,741L3545,499L3375,725Z" fill="#85aebd" stroke="#85aebd" stroke-width="1.51"/><path d="M3199,410L3070,6L2638,289Z" fill="#95c3cd" stroke="#95c3cd" stroke-width="1.51"/><path d="M661,-12L378,96L446,301Z" fill="#d7f0d1" stroke="#d7f0d1" stroke-width="1.51"/><path d="M638,3375L880,3928L1022,3543Z" fill="#7fabba" stroke="#7fabba" stroke-width="1.51"/><path d="M-14,2583L-89,3103L273,2746Z" fill="#9acad3" stroke="#9acad3" stroke-width="1.51"/><path d="M-359,2814L-89,3103L-14,2583Z" fill="#9ecbd6" stroke="#9ecbd6" stroke-width="1.51"/><path d="M3796,3146L3882,2581L3557,2643Z" fill="#2e87bd" stroke="#2e87bd" stroke-width="1.51"/><path d="M3796,3146L3557,2643L3502,3032Z" fill="#2b87bc" stroke="#2b87bc" stroke-width="1.51"/><path d="M378,96L30,424L446,301Z" fill="#d8f0d2" stroke="#d8f0d2" stroke-width="1.51"/><path d="M2712,-282L2279,-383L2350,-73Z" fill="#a8d7db" stroke="#a8d7db" stroke-width="1.51"/><path d="M3377,36L3070,6L3199,410Z" fill="#91bccb" stroke="#91bccb" stroke-width="1.51"/><path d="M264,3789L880,3928L638,3375Z" fill="#84aabc" stroke="#84aabc" stroke-width="1.51"/><path d="M31,3366L250,3536L460,2978Z" fill="#8fb9c8" stroke="#8fb9c8" stroke-width="1.51"/><path d="M2370,4134L2703,3930L2383,3824Z" fill="#3889b9" stroke="#3889b9" stroke-width="1.51"/><path d="M2383,3824L2703,3930L2711,3433Z" fill="#358ec0" stroke="#358ec0" stroke-width="1.51"/><path d="M661,-12L366,-505L378,96Z" fill="#dcf1d6" stroke="#dcf1d6" stroke-width="1.51"/><path d="M1521,-439L1036,-318L1623,-110Z" fill="#c7e9cf" stroke="#c7e9cf" stroke-width="1.51"/><path d="M1995,-324L1521,-439L1623,-110Z" fill="#bde5d2" stroke="#bde5d2" stroke-width="1.51"/><path d="M2712,-282L2350,-73L2648,-84Z" fill="#a3d4da" stroke="#a3d4da" stroke-width="1.51"/><path d="M2279,-383L1521,-439L1995,-324Z" fill="#b7e3d6" stroke="#b7e3d6" stroke-width="1.51"/><path d="M-89,3103L31,3366L460,2978Z" fill="#93bfcc" stroke="#93bfcc" stroke-width="1.51"/><path d="M-442,1983L-515,2290L-52,2232Z" fill="#b1ddd9" stroke="#b1ddd9" stroke-width="1.51"/><path d="M-89,3103L-311,3111L31,3366Z" fill="#96bed0" stroke="#96bed0" stroke-width="1.51"/><path d="M-532,1426L-515,2290L-442,1983Z" fill="#bae4d8" stroke="#bae4d8" stroke-width="1.51"/><path d="M3070,6L2712,-282L2648,-84Z" fill="#9dcbd5" stroke="#9dcbd5" stroke-width="1.51"/><path d="M-515,2290L-359,2814L-14,2583Z" fill="#a6d5dd" stroke="#a6d5dd" stroke-width="1.51"/><path d="M3448,3751L3524,3383L3124,3588Z" fill="#1f7bb6" stroke="#1f7bb6" stroke-width="1.51"/><path d="M3124,3588L3524,3383L3136,3190Z" fill="#2683ba" stroke="#2683ba" stroke-width="1.51"/><path d="M-353,1268L-532,1426L2,1422Z" fill="#c8eace" stroke="#c8eace" stroke-width="1.51"/><path d="M-425,736L-532,1426L-353,1268Z" fill="#d1edd2" stroke="#d1edd2" stroke-width="1.51"/><path d="M3545,499L3377,36L3199,410Z" fill="#8db6c5" stroke="#8db6c5" stroke-width="1.51"/><path d="M3804,1059L3832,741L3375,725Z" fill="#7ea9b9" stroke="#7ea9b9" stroke-width="1.51"/><path d="M4186,1128L3832,741L3804,1059Z" fill="#779eb1" stroke="#779eb1" stroke-width="1.51"/><path d="M1870,3943L2370,4134L2383,3824Z" fill="#468db6" stroke="#468db6" stroke-width="1.51"/><path d="M2036,4329L2370,4134L1870,3943Z" fill="#4a8aaf" stroke="#4a8aaf" stroke-width="1.51"/><path d="M1587,4264L1619,3757L1144,3943Z" fill="#6798ae" stroke="#6798ae" stroke-width="1.51"/><path d="M880,3928L1150,4146L1144,3943Z" fill="#739bae" stroke="#739bae" stroke-width="1.51"/><path d="M718,4212L1150,4146L880,3928Z" fill="#779aac" stroke="#779aac" stroke-width="1.51"/><path d="M2703,3930L3125,3810L3124,3588Z" fill="#2781b9" stroke="#2781b9" stroke-width="1.51"/><path d="M2808,4271L3125,3810L2703,3930Z" fill="#297cb3" stroke="#297cb3" stroke-width="1.51"/><path d="M3766,3557L3796,3146L3524,3383Z" fill="#1c77b4" stroke="#1c77b4" stroke-width="1.51"/><path d="M3524,3383L3796,3146L3502,3032Z" fill="#237fb8" stroke="#237fb8" stroke-width="1.51"/><path d="M1150,4146L1587,4264L1144,3943Z" fill="#6c95a7" stroke="#6c95a7" stroke-width="1.51"/><path d="M3070,6L3200,-529L2712,-282Z" fill="#9dc6d5" stroke="#9dc6d5" stroke-width="1.51"/><path d="M3812,334L3377,36L3545,499Z" fill="#8bb0c4" stroke="#8bb0c4" stroke-width="1.51"/><path d="M-399,3451L-311,3111L-359,2814Z" fill="#9cc2d4" stroke="#9cc2d4" stroke-width="1.51"/><path d="M-359,2814L-311,3111L-89,3103Z" fill="#9cc5d4" stroke="#9cc5d4" stroke-width="1.51"/><path d="M37,3764L264,3789L250,3536Z" fill="#8aadc3" stroke="#8aadc3" stroke-width="1.51"/><path d="M3953,1981L4186,1473L3814,1514Z" fill="#5e96b0" stroke="#5e96b0" stroke-width="1.51"/><path d="M4256,1967L4186,1473L3953,1981Z" fill="#568eac" stroke="#568eac" stroke-width="1.51"/><path d="M3953,1981L3778,2354L4280,2196Z" fill="#478db5" stroke="#478db5" stroke-width="1.51"/><path d="M37,3764L250,3536L31,3366Z" fill="#8eb2c6" stroke="#8eb2c6" stroke-width="1.51"/><path d="M250,3536L264,3789L638,3375Z" fill="#89b0c2" stroke="#89b0c2" stroke-width="1.51"/><path d="M-377,500L-425,736L14,848Z" fill="#dbf1d4" stroke="#dbf1d4" stroke-width="1.51"/><path d="M-377,500L14,848L30,424Z" fill="#daf1d3" stroke="#daf1d3" stroke-width="1.51"/><path d="M4280,2196L3778,2354L3882,2581Z" fill="#3e8ab8" stroke="#3e8ab8" stroke-width="1.51"/><path d="M1587,4264L2036,4329L1870,3943Z" fill="#548cab" stroke="#548cab" stroke-width="1.51"/><path d="M3486,4159L3448,3751L3125,3810Z" fill="#1972af" stroke="#1972af" stroke-width="1.51"/><path d="M1521,-439L865,-499L1036,-318Z" fill="#d1edd1" stroke="#d1edd1" stroke-width="1.51"/><path d="M1036,-318L865,-499L661,-12Z" fill="#d6efd2" stroke="#d6efd2" stroke-width="1.51"/><path d="M-91,91L-377,500L30,424Z" fill="#def3d8" stroke="#def3d8" stroke-width="1.51"/><path d="M3200,-529L865,-499L1521,-439Z" fill="#bce4d7" stroke="#bce4d7" stroke-width="1.51"/><path d="M3832,741L3812,334L3545,499Z" fill="#85aabd" stroke="#85aabd" stroke-width="1.51"/><path d="M4186,1473L4186,1128L3814,1514Z" fill="#6997aa" stroke="#6997aa" stroke-width="1.51"/><path d="M4319,633L4186,1128L4186,1473Z" fill="#7094a6" stroke="#7094a6" stroke-width="1.51"/><path d="M-91,91L30,424L378,96Z" fill="#ddf2d6" stroke="#ddf2d6" stroke-width="1.51"/><path d="M4256,1967L4319,633L4186,1473Z" fill="#6790a3" stroke="#6790a3" stroke-width="1.51"/><path d="M4208,2665L4280,2196L3882,2581Z" fill="#3783b3" stroke="#3783b3" stroke-width="1.51"/><path d="M3125,3810L3448,3751L3124,3588Z" fill="#1f7bb6" stroke="#1f7bb6" stroke-width="1.51"/><path d="M2808,4271L2703,3930L2370,4134Z" fill="#3180b3" stroke="#3180b3" stroke-width="1.51"/><path d="M4319,633L3812,334L3832,741Z" fill="#81a0b5" stroke="#81a0b5" stroke-width="1.51"/><path d="M51,-456L-91,91L378,96Z" fill="#e1f4db" stroke="#e1f4db" stroke-width="1.51"/><path d="M3796,3146L4208,2665L3882,2581Z" fill="#2d80b6" stroke="#2d80b6" stroke-width="1.51"/><path d="M4237,3101L4208,2665L3796,3146Z" fill="#2677af" stroke="#2677af" stroke-width="1.51"/><path d="M-289,3725L37,3764L31,3366Z" fill="#8fb1c8" stroke="#8fb1c8" stroke-width="1.51"/><path d="M476,4182L718,4212L880,3928Z" fill="#7d9caf" stroke="#7d9caf" stroke-width="1.51"/><path d="M1150,4146L718,4212L1587,4264Z" fill="#6f93a6" stroke="#6f93a6" stroke-width="1.51"/><path d="M1587,4264L-373,4347L2036,4329Z" fill="#6f91a3" stroke="#6f91a3" stroke-width="1.51"/><path d="M476,4182L880,3928L264,3789Z" fill="#82a2b6" stroke="#82a2b6" stroke-width="1.51"/><path d="M3448,3751L3766,3557L3524,3383Z" fill="#1b75b3" stroke="#1b75b3" stroke-width="1.51"/><path d="M3448,3751L3879,3923L3766,3557Z" fill="#116daf" stroke="#116daf" stroke-width="1.51"/><path d="M2036,4329L2808,4271L2370,4134Z" fill="#3b80af" stroke="#3b80af" stroke-width="1.51"/><path d="M73,4203L476,4182L264,3789Z" fill="#84a0b8" stroke="#84a0b8" stroke-width="1.51"/><path d="M37,3764L73,4203L264,3789Z" fill="#88a6bf" stroke="#88a6bf" stroke-width="1.51"/><path d="M-311,3111L-399,3451L31,3366Z" fill="#96bcd0" stroke="#96bcd0" stroke-width="1.51"/><path d="M-515,2290L-399,3451L-359,2814Z" fill="#a3ccda" stroke="#a3ccda" stroke-width="1.51"/><path d="M865,-499L366,-505L661,-12Z" fill="#ddf2d6" stroke="#ddf2d6" stroke-width="1.51"/><path d="M4244,3527L4237,3101L3796,3146Z" fill="#1c6eaa" stroke="#1c6eaa" stroke-width="1.51"/><path d="M4208,2665L4237,3101L4280,2196Z" fill="#307aaf" stroke="#307aaf" stroke-width="1.51"/><path d="M3525,-322L3200,-529L3070,6Z" fill="#98bdd1" stroke="#98bdd1" stroke-width="1.51"/><path d="M2712,-282L3200,-529L2279,-383Z" fill="#a5d0db" stroke="#a5d0db" stroke-width="1.51"/><path d="M2279,-383L3200,-529L1521,-439Z" fill="#afdadd" stroke="#afdadd" stroke-width="1.51"/><path d="M865,-499L3200,-529L366,-505Z" fill="#c9ead3" stroke="#c9ead3" stroke-width="1.51"/><path d="M3525,-322L3070,6L3377,36Z" fill="#94bbcd" stroke="#94bbcd" stroke-width="1.51"/><path d="M-399,3451L-289,3725L31,3366Z" fill="#93b6cc" stroke="#93b6cc" stroke-width="1.51"/><path d="M3944,-59L3377,36L3812,334Z" fill="#8cadc4" stroke="#8cadc4" stroke-width="1.51"/><path d="M3944,-59L3525,-322L3377,36Z" fill="#90b1ca" stroke="#90b1ca" stroke-width="1.51"/><path d="M2808,4271L3158,4286L3125,3810Z" fill="#2474ac" stroke="#2474ac" stroke-width="1.51"/><path d="M3766,3557L4244,3527L3796,3146Z" fill="#186fad" stroke="#186fad" stroke-width="1.51"/><path d="M2036,4329L3158,4286L2808,4271Z" fill="#2f79ad" stroke="#2f79ad" stroke-width="1.51"/><path d="M4186,1128L4319,633L3832,741Z" fill="#799aad" stroke="#799aad" stroke-width="1.51"/><path d="M4280,2196L4319,633L4256,1967Z" fill="#5d8ca4" stroke="#5d8ca4" stroke-width="1.51"/><path d="M-91,91L-446,-146L-377,500Z" fill="#e4f5de" stroke="#e4f5de" stroke-width="1.51"/><path d="M366,-505L51,-456L378,96Z" fill="#e3f4dc" stroke="#e3f4dc" stroke-width="1.51"/><path d="M3158,4286L3486,4159L3125,3810Z" fill="#1c6faa" stroke="#1c6faa" stroke-width="1.51"/><path d="M3525,-322L3921,-359L3200,-529Z" fill="#96b5cf" stroke="#96b5cf" stroke-width="1.51"/><path d="M4330,311L3944,-59L3812,334Z" fill="#86a2ba" stroke="#86a2ba" stroke-width="1.51"/><path d="M-289,3725L73,4203L37,3764Z" fill="#8ba7c3" stroke="#8ba7c3" stroke-width="1.51"/><path d="M476,4182L-373,4347L718,4212Z" fill="#8199b1" stroke="#8199b1" stroke-width="1.51"/><path d="M718,4212L-373,4347L1587,4264Z" fill="#7c96aa" stroke="#7c96aa" stroke-width="1.51"/><path d="M3750,4136L3879,3923L3448,3751Z" fill="#0f67a9" stroke="#0f67a9" stroke-width="1.51"/><path d="M51,-456L-446,-146L-91,91Z" fill="#e7f6e2" stroke="#e7f6e2" stroke-width="1.51"/><path d="M-377,500L-446,-146L-425,736Z" fill="#e3f4dc" stroke="#e3f4dc" stroke-width="1.51"/><path d="M-425,736L-529,-476L-532,1426Z" fill="#e1f4da" stroke="#e1f4da" stroke-width="1.51"/><path d="M4319,633L4330,311L3812,334Z" fill="#809cb2" stroke="#809cb2" stroke-width="1.51"/><path d="M4326,4128L4330,311L4319,633Z" fill="#5989a5" stroke="#5989a5" stroke-width="1.51"/><path d="M3879,3923L4244,3527L3766,3557Z" fill="#0f67a8" stroke="#0f67a8" stroke-width="1.51"/><path d="M4237,3101L4326,4128L4280,2196Z" fill="#206ba5" stroke="#206ba5" stroke-width="1.51"/><path d="M3879,3923L4271,3986L4244,3527Z" fill="#0a5da1" stroke="#0a5da1" stroke-width="1.51"/><path d="M3486,4159L3750,4136L3448,3751Z" fill="#1368a8" stroke="#1368a8" stroke-width="1.51"/><path d="M3158,4286L3750,4136L3486,4159Z" fill="#1765a4" stroke="#1765a4" stroke-width="1.51"/><path d="M3944,-59L3921,-359L3525,-322Z" fill="#90adc9" stroke="#90adc9" stroke-width="1.51"/><path d="M4297,-109L3921,-359L3944,-59Z" fill="#8ba3bf" stroke="#8ba3bf" stroke-width="1.51"/><path d="M4330,311L4297,-109L3944,-59Z" fill="#859db7" stroke="#859db7" stroke-width="1.51"/><path d="M51,-456L-529,-476L-446,-146Z" fill="#edf9e7" stroke="#edf9e7" stroke-width="1.51"/><path d="M-446,-146L-529,-476L-425,736Z" fill="#e9f7e3" stroke="#e9f7e3" stroke-width="1.51"/><path d="M366,-505L-529,-476L51,-456Z" fill="#ebf7e4" stroke="#ebf7e4" stroke-width="1.51"/><path d="M-289,3725L-373,4347L73,4203Z" fill="#8ba2bf" stroke="#8ba2bf" stroke-width="1.51"/><path d="M73,4203L-373,4347L476,4182Z" fill="#849bb5" stroke="#849bb5" stroke-width="1.51"/><path d="M-399,3451L-373,4347L-289,3725Z" fill="#91acca" stroke="#91acca" stroke-width="1.51"/><path d="M-515,2290L-373,4347L-399,3451Z" fill="#99bbd2" stroke="#99bbd2" stroke-width="1.51"/><path d="M4244,3527L4326,4128L4237,3101Z" fill="#12609f" stroke="#12609f" stroke-width="1.51"/><path d="M4280,2196L4326,4128L4319,633Z" fill="#3f80ac" stroke="#3f80ac" stroke-width="1.51"/><path d="M4326,4128L4271,3986L3879,3923Z" fill="#0a5699" stroke="#0a5699" stroke-width="1.51"/><path d="M3750,4136L4326,4128L3879,3923Z" fill="#0a5a9d" stroke="#0a5a9d" stroke-width="1.51"/><path d="M4271,3986L4326,4128L4244,3527Z" fill="#0a5699" stroke="#0a5699" stroke-width="1.51"/><path d="M3158,4286L4326,4128L3750,4136Z" fill="#0c5ea0" stroke="#0c5ea0" stroke-width="1.51"/><path d="M3921,-359L4304,-510L3200,-529Z" fill="#94aecd" stroke="#94aecd" stroke-width="1.51"/><path d="M4297,-109L4304,-510L3921,-359Z" fill="#8ca0bd" stroke="#8ca0bd" stroke-width="1.51"/><path d="M4330,311L4304,-510L4297,-109Z" fill="#8699b5" stroke="#8699b5" stroke-width="1.51"/></svg>